<svg width="14" height="21" viewBox="0 0 14 21" fill="none" xmlns="http://www.w3.org/2000/svg">
<path d="M7 9.94219C6.33696 9.94219 5.70107 9.66654 5.23223 9.17588C4.76339 8.68521 4.5 8.01973 4.5 7.32583C4.5 6.63192 4.76339 5.96644 5.23223 5.47578C5.70107 4.98511 6.33696 4.70946 7 4.70946C7.66304 4.70946 8.29893 4.98511 8.76777 5.47578C9.23661 5.96644 9.5 6.63192 9.5 7.32583C9.5 7.66941 9.43534 8.00963 9.3097 8.32707C9.18406 8.6445 8.99991 8.93292 8.76777 9.17588C8.53562 9.41883 8.26002 9.61155 7.95671 9.74303C7.65339 9.87452 7.3283 9.94219 7 9.94219ZM7 0C5.14348 0 3.36301 0.771826 2.05025 2.14568C0.737498 3.51954 0 5.3829 0 7.32583C0 12.8202 7 20.9309 7 20.9309C7 20.9309 14 12.8202 14 7.32583C14 5.3829 13.2625 3.51954 11.9497 2.14568C10.637 0.771826 8.85652 0 7 0Z" fill="#56534E"/>
</svg>
